<mxfile host="app.diagrams.net" modified="2022-12-03T00:45:46.916Z" agent="5.0 (Windows)" version="20.6.0" etag="XICqPGd8bkACJx0AFeia" type="github">
  <diagram id="2XOgd2F385Jk3y58kC3z" name="Page-1">
    <mxGraphModel dx="1422" dy="762" grid="1" gridSize="10" guides="1" tooltips="1" connect="1" arrows="1" fold="1" page="1" pageScale="1" pageWidth="850" pageHeight="1100" math="0" shadow="0">
      <root>
        <mxCell id="0" />
        <mxCell id="1" parent="0" />
        <mxCell id="CaC2BNJiFHm6_-4IKOF1-1" value="" style="rounded=0;whiteSpace=wrap;html=1;" vertex="1" parent="1">
          <mxGeometry x="130" y="110" width="350" height="320" as="geometry" />
        </mxCell>
      </root>
    </mxGraphModel>
  </diagram>
</mxfile>
